<?xml version="1.0" encoding="UTF-8"?><svg xmlns="http://www.w3.org/2000/svg" xmlns:xlink="http://www.w3.org/1999/xlink" version="1.1" id="Layer_1" x="0px" y="0px" viewBox="0 0 24 24" xml:space="preserve"><path d="M23 0H2.5a.5.5 0 0 0-.468.324l-1.5 4A.503.503 0 0 0 .5 4.5v16a.5.5 0 0 0 .5.5h5.5v2.5a.5.5 0 0 0 .5.5h2c.133 0 .26-.053.354-.146L12.207 21H17c.133 0 .26-.053.354-.146l6-6a.504.504 0 0 0 .146-.354V.5A.5.5 0 0 0 23 0zM9 17H4V3h16.5v10.293L16.793 17H12a.504.504 0 0 0-.354.146L9.5 19.293V17.5A.5.5 0 0 0 9 17z"/><path d="M10 13a.5.5 0 0 0 .5-.5v-6a.5.5 0 0 0-1 0v6a.5.5 0 0 0 .5.5z"/><path d="M16 13a.5.5 0 0 0 .5-.5v-6a.5.5 0 0 0-1 0v6a.5.5 0 0 0 .5.5z"/><metadata><rdf:RDF xmlns:rdf="http://www.w3.org/1999/02/22-rdf-syntax-ns#" xmlns:rdfs="http://www.w3.org/2000/01/rdf-schema#" xmlns:dc="http://purl.org/dc/elements/1.1/"><rdf:Description about="https://iconscout.com/legal#licenses" dc:title="twitch" dc:description="twitch" dc:publisher="Iconscout" dc:date="2018-01-05" dc:format="image/svg+xml" dc:language="en"><dc:creator><rdf:Bag><rdf:li>Icon 54</rdf:li></rdf:Bag></dc:creator></rdf:Description></rdf:RDF></metadata></svg>